<svg width="39" height="39" viewBox="0 0 39 39" fill="none" xmlns="http://www.w3.org/2000/svg">
<rect width="39" height="39" rx="7" fill="#D84040"/>
<circle cx="19.26" cy="19.26" r="13.26" fill="#222222"/>
<path d="M17.3125 21.0625C17.7269 21.0625 18.1243 20.8979 18.4174 20.6049C18.7104 20.3118 18.875 19.9144 18.875 19.5C18.875 18.6375 18.5625 18.25 18.25 17.625C17.58 16.2856 18.11 15.0912 19.5 13.875C19.8125 15.4375 20.75 16.9375 22 17.9375C23.25 18.9375 23.875 20.125 23.875 21.375C23.875 21.9495 23.7618 22.5184 23.542 23.0492C23.3221 23.58 22.9998 24.0623 22.5936 24.4686C22.1873 24.8748 21.705 25.1971 21.1742 25.417C20.6434 25.6368 20.0745 25.75 19.5 25.75C18.9255 25.75 18.3566 25.6368 17.8258 25.417C17.295 25.1971 16.8127 24.8748 16.4064 24.4686C16.0002 24.0623 15.6779 23.58 15.458 23.0492C15.2382 22.5184 15.125 21.9495 15.125 21.375C15.125 20.6544 15.3956 19.9412 15.75 19.5C15.75 19.9144 15.9146 20.3118 16.2076 20.6049C16.5007 20.8979 16.8981 21.0625 17.3125 21.0625Z" stroke="url(#paint0_linear_263_153)" stroke-width="1.6" stroke-linecap="round" stroke-linejoin="round"/>
<defs>
<linearGradient id="paint0_linear_263_153" x1="18.875" y1="12" x2="20.4375" y2="25.75" gradientUnits="userSpaceOnUse">
<stop stop-color="#FFB02E"/>
<stop offset="1" stop-color="#DD5C22"/>
</linearGradient>
</defs>
</svg>
